<svg width="410" height="424" xmlns="http://www.w3.org/2000/svg"><g fill="#505CFD" fill-rule="evenodd"><path d="M400.1 55.956a3.495 3.495 0 0 1 4.941.137c1.326 1.411 1.272 3.623-.132 4.95-1.41 1.327-3.625 1.268-4.94-.142a3.476 3.476 0 0 1 .132-4.945M384.096 37.96a3.497 3.497 0 0 1 4.95.137 3.502 3.502 0 0 1-.143 4.948 3.495 3.495 0 0 1-4.945-.143 3.49 3.49 0 0 1 .138-4.942M367.1 19.956a3.507 3.507 0 0 1 4.95.137c1.323 1.411 1.254 3.633-.142 4.945a3.491 3.491 0 0 1-4.945-.132 3.49 3.49 0 0 1 .138-4.95M349.165 7.874c-.645-.535-1.027-1.185-1.165-1.86 2.36.715 4.69 1.47 7 2.305-1.797 1.015-4.289.875-5.835-.445M402.092 86.956a3.49 3.49 0 0 1 4.94.142 3.491 3.491 0 0 1-.128 4.953 3.51 3.51 0 0 1-4.95-.148 3.508 3.508 0 0 1 .138-4.947M386.099 69.947c1.396-1.321 3.609-1.252 4.946.157a3.492 3.492 0 0 1-.143 4.942 3.493 3.493 0 0 1-4.94-.143 3.5 3.5 0 0 1 .137-4.956M368.103 51.954a3.496 3.496 0 0 1 4.938.137 3.515 3.515 0 0 1-.133 4.96 3.509 3.509 0 0 1-4.948-.147 3.49 3.49 0 0 1 .143-4.95M352.096 33.948a3.511 3.511 0 0 1 4.953.153 3.5 3.5 0 0 1-5.09 4.806 3.51 3.51 0 0 1 .137-4.959M335.098 16.962a3.5 3.5 0 0 1 4.951.133c1.317 1.41 1.263 3.633-.142 4.946a3.505 3.505 0 0 1-4.957-.138 3.498 3.498 0 0 1 .148-4.941M323.911 4.08c-1.4 1.275-3.633 1.218-4.955-.131a3.212 3.212 0 0 1-.498-3.942 67.403 67.403 0 0 1 6.188.184 3.229 3.229 0 0 1-.735 3.89M404.095 118.957a3.503 3.503 0 0 1 4.954.142 3.506 3.506 0 0 1-.143 4.945 3.511 3.511 0 0 1-4.953-.137 3.507 3.507 0 0 1 .142-4.95M386.096 101.96a3.497 3.497 0 0 1 4.944.132c1.327 1.41 1.273 3.63-.132 4.956a3.51 3.51 0 0 1-4.955-.147 3.497 3.497 0 0 1 .143-4.942M370.097 83.956a3.502 3.502 0 0 1 4.948.138 3.513 3.513 0 0 1-.138 4.954 3.5 3.5 0 0 1-4.942-.143 3.489 3.489 0 0 1 .132-4.949M352.1 65.95c1.4-1.326 3.613-1.252 4.945.148a3.506 3.506 0 0 1-.143 4.953 3.511 3.511 0 0 1-4.945-.143 3.507 3.507 0 0 1 .142-4.957M337.087 48.952a3.507 3.507 0 0 1 4.956.152 3.494 3.494 0 0 1-.143 4.947 3.512 3.512 0 0 1-4.946-.143 3.523 3.523 0 0 1 .133-4.956M321.093 30.957a3.5 3.5 0 0 1 4.814 5.083 3.493 3.493 0 0 1-4.947-.137 3.496 3.496 0 0 1 .133-4.946M303.096 12.957a3.492 3.492 0 0 1 4.944.142 3.5 3.5 0 0 1-.132 4.949 3.496 3.496 0 0 1-4.945-.148 3.486 3.486 0 0 1 .133-4.943M388.103 132.96c1.394-1.34 3.61-1.262 4.94.142a3.497 3.497 0 0 1-.133 4.94 3.502 3.502 0 0 1-4.954-.142 3.484 3.484 0 0 1 .147-4.94M372.102 115.956a3.493 3.493 0 0 1 4.939.137 3.487 3.487 0 0 1-.143 4.946 3.48 3.48 0 0 1-4.939-.138 3.487 3.487 0 0 1 .143-4.945M354.102 97.947c1.4-1.322 3.614-1.248 4.94.148a3.511 3.511 0 0 1-.133 4.955c-1.414 1.322-3.634 1.258-4.95-.153-1.335-1.396-1.266-3.613.143-4.95M338.102 79.957a3.492 3.492 0 0 1 4.946.143 3.5 3.5 0 0 1-5.084 4.809 3.489 3.489 0 0 1 .138-4.952M321.1 62.966a3.49 3.49 0 0 1 4.947.127 3.51 3.51 0 0 1-.143 4.953 3.49 3.49 0 0 1-4.947-.152 3.471 3.471 0 0 1 .143-4.928M305.091 44.955a3.502 3.502 0 1 1 4.813 5.089 3.501 3.501 0 0 1-4.813-5.089M289.093 26.96a3.495 3.495 0 0 1 4.947.137 3.491 3.491 0 0 1-.138 4.946 3.505 3.505 0 0 1-4.952-.138c-1.318-1.411-1.26-3.623.143-4.946M275.644 15.749c-1.59 1.19-3.968 1.285-5.644.27 1.161-.665 2.279-1.34 3.502-2.03 1.111-.615 2.254-1.145 3.353-1.705.39 1.2-.006 2.54-1.211 3.465M374.097 147.958a3.512 3.512 0 0 1 4.95.128c1.322 1.406 1.263 3.632-.142 4.954a3.503 3.503 0 0 1-4.95-.132 3.503 3.503 0 0 1 .142-4.95M356.103 129.953c1.39-1.321 3.606-1.262 4.942.138a3.513 3.513 0 0 1-.142 4.957 3.49 3.49 0 0 1-4.943-.152 3.482 3.482 0 0 1 .143-4.943M340.098 111.957a3.494 3.494 0 0 1 4.943.138 3.502 3.502 0 0 1-.133 4.949 3.5 3.5 0 1 1-4.81-5.087M322.093 94.957a3.5 3.5 0 0 1 4.948.138 3.499 3.499 0 0 1-.132 4.945 3.512 3.512 0 0 1-4.959-.133c-1.318-1.41-1.26-3.627.143-4.95M306.096 76.956a3.504 3.504 0 0 1 4.953.142 3.5 3.5 0 0 1-.142 4.94 3.489 3.489 0 0 1-4.948-.137 3.492 3.492 0 0 1 .137-4.945M289.094 58.955a3.495 3.495 0 0 1 4.945.143c1.331 1.401 1.272 3.629-.133 4.947a3.494 3.494 0 0 1-4.945-.143 3.494 3.494 0 0 1 .133-4.947M273.092 41.959a3.49 3.49 0 0 1 4.947.142 3.487 3.487 0 0 1-.137 4.944 3.494 3.494 0 0 1-4.943-.142 3.496 3.496 0 0 1 .133-4.944M261.807 30.926c-1.532 1.492-3.923 1.42-5.375-.16a4.1 4.1 0 0 1-.432-.586c1.713-1.703 3.592-3.433 5.567-5.18.133.116.272.227.39.36 1.456 1.586 1.37 4.068-.15 5.566M358.089 163.959a3.512 3.512 0 0 1 4.951.127c1.328 1.416 1.274 3.633-.137 4.96a3.497 3.497 0 0 1-4.942-.142 3.5 3.5 0 0 1 .128-4.945M342.097 145.957a3.493 3.493 0 0 1 4.942.138 3.498 3.498 0 1 1-5.085 4.806 3.496 3.496 0 0 1 .143-4.944M324.095 127.955a3.487 3.487 0 0 1 4.95.157 3.478 3.478 0 0 1-.138 4.926 3.49 3.49 0 0 1-4.95-.138 3.497 3.497 0 0 1 .138-4.945M308.1 109.96c1.395-1.333 3.613-1.269 4.95.137a3.51 3.51 0 0 1-.142 4.946 3.493 3.493 0 0 1-4.947-.143 3.482 3.482 0 0 1 .138-4.94M291.1 92.949a3.506 3.506 0 0 1 4.944.147 3.509 3.509 0 0 1-.133 4.948c-1.42 1.327-3.632 1.263-4.954-.132a3.513 3.513 0 0 1 .142-4.963M275.097 72.958a3.503 3.503 0 0 1 4.944.128c1.326 1.42 1.272 3.627-.133 4.96a3.506 3.506 0 0 1-4.953-.143 3.496 3.496 0 0 1 .142-4.945M257.096 55.954a3.499 3.499 0 0 1 4.946.143 3.495 3.495 0 1 1-5.073 4.813 3.493 3.493 0 0 1 .127-4.956M245.907 44.865c-1.094 1.229-2.636 1.442-3.907.727A89.714 89.714 0 0 1 246.103 39c1.262 1.69 1.188 4.288-.196 5.865M342.102 177.963a3.482 3.482 0 0 1 4.943.137 3.501 3.501 0 0 1-5.091 4.805 3.49 3.49 0 0 1 .148-4.942M326.098 159.957a3.496 3.496 0 0 1 4.943.137c1.332 1.4 1.268 3.615-.137 4.956-1.4 1.326-3.612 1.253-4.943-.152a3.484 3.484 0 0 1 .137-4.941M310.092 141.955a3.499 3.499 0 0 1 4.95.147c1.323 1.401 1.274 3.619-.137 4.941a3.516 3.516 0 0 1-4.951-.128c-1.323-1.42-1.264-3.633.138-4.96M292.09 124.955a3.51 3.51 0 0 1 4.955.142 3.506 3.506 0 0 1-.143 4.953 3.491 3.491 0 0 1-4.94-.152 3.493 3.493 0 0 1 .128-4.943M276.092 106.95a3.519 3.519 0 0 1 4.957.147 3.511 3.511 0 0 1-.143 4.95c-1.401 1.327-3.624 1.259-4.956-.147-1.323-1.401-1.254-3.619.142-4.95M259.09 88.953a3.512 3.512 0 0 1 4.953.142 3.5 3.5 0 0 1-5.086 4.81 3.51 3.51 0 0 1 .133-4.952M243.094 71.957a3.53 3.53 0 0 1 4.963.128c1.308 1.412 1.254 3.63-.153 4.949a3.49 3.49 0 0 1-4.948-.128 3.503 3.503 0 0 1 .138-4.949M328.097 191.948c1.405-1.323 3.62-1.249 4.946.143a3.52 3.52 0 0 1-.137 4.962c-1.41 1.313-3.62 1.259-4.941-.152a3.494 3.494 0 0 1 .132-4.953M310.095 173.955a3.503 3.503 0 0 1 4.95.142 3.5 3.5 0 0 1-5.088 4.806c-1.332-1.395-1.263-3.626.138-4.948M294.095 155.955a3.496 3.496 0 0 1 4.946.143 3.504 3.504 0 0 1-.138 4.955 3.506 3.506 0 0 1-4.946-.152 3.497 3.497 0 0 1 .138-4.946M276.095 138.955a3.496 3.496 0 0 1 4.945.143c1.332 1.391 1.268 3.619-.133 4.946a3.506 3.506 0 0 1-4.95-.138 3.503 3.503 0 0 1 .138-4.95M260.093 120.957a3.492 3.492 0 0 1 4.945.143 3.492 3.492 0 0 1-.132 4.945 3.496 3.496 0 0 1-4.946-.143 3.496 3.496 0 0 1 .133-4.945M245.091 102.958a3.526 3.526 0 0 1 4.962.128c1.313 1.416 1.259 3.627-.152 4.96a3.493 3.493 0 0 1-4.943-.143 3.498 3.498 0 0 1 .133-4.945M231.822 86.08a3.486 3.486 0 0 1-.145 4.97c-.96.899-2.285 1.146-3.47.8.25-2.152.425-4.428.63-6.827 1.065-.119 2.18.222 2.985 1.056M312.096 205.954a3.498 3.498 0 0 1 4.944.143 3.504 3.504 0 0 1-.132 4.951 3.505 3.505 0 0 1-4.955-.152 3.497 3.497 0 0 1 .143-4.942M296.098 187.953a3.502 3.502 0 0 1 4.812 5.089 3.507 3.507 0 0 1-4.955-.137 3.504 3.504 0 0 1 .143-4.952M278.093 170.96a3.501 3.501 0 0 1 4.95.133 3.504 3.504 0 0 1-.138 4.952c-1.41 1.327-3.628 1.263-4.945-.143a3.492 3.492 0 0 1 .133-4.942M262.096 152.949c1.403-1.323 3.617-1.254 4.951.152 1.319 1.396 1.265 3.623-.138 4.946a3.506 3.506 0 0 1-4.813-5.098M245.1 134.962c1.396-1.327 3.622-1.278 4.944.128a3.516 3.516 0 0 1-.133 4.953c-1.42 1.327-3.626 1.268-4.948-.138a3.482 3.482 0 0 1 .137-4.943M229.094 117.958a3.5 3.5 0 0 1 4.954.142 3.513 3.513 0 0 1-.138 4.949 3.505 3.505 0 0 1-4.954-.152 3.492 3.492 0 0 1 .138-4.94M298.096 219.955a3.491 3.491 0 0 1 4.941.143 3.485 3.485 0 0 1-.132 4.942 3.496 3.496 0 0 1-4.946-.133c-1.336-1.396-1.263-3.624.137-4.952M280.094 201.955a3.495 3.495 0 0 1 4.944.143 3.493 3.493 0 0 1-.132 4.946 3.511 3.511 0 0 1-4.955-.138 3.513 3.513 0 0 1 .143-4.95M264.1 184.95c1.39-1.323 3.616-1.254 4.948.142 1.322 1.411 1.258 3.633-.137 4.955a3.507 3.507 0 0 1-4.954-.147 3.499 3.499 0 0 1 .142-4.95M246.095 166.958a3.495 3.495 0 0 1 4.951.143c1.323 1.39 1.264 3.617-.138 4.944a3.503 3.503 0 0 1-4.95-.142 3.495 3.495 0 0 1 .137-4.945M230.094 148.957a3.508 3.508 0 0 1 4.953.137 3.497 3.497 0 0 1-.142 4.941 3.482 3.482 0 0 1-4.944-.132 3.494 3.494 0 0 1 .133-4.946M213.093 131.954a3.517 3.517 0 0 1 4.96.143c1.312 1.41 1.258 3.624-.148 4.94a3.485 3.485 0 0 1-4.945-.137c-1.332-1.395-1.268-3.61.133-4.946M199.058 120.01a69.99 69.99 0 0 0 2.885-1.04c-.03.035-.06.075-.09.105a3.515 3.515 0 0 1-2.796.935M282.094 233.958a3.495 3.495 0 0 1 4.949.142c1.327 1.395 1.268 3.615-.138 4.95a3.51 3.51 0 0 1-4.954-.152c-1.327-1.39-1.253-3.614.143-4.94M266.091 216.956a3.51 3.51 0 0 1 4.953.138 3.507 3.507 0 0 1-.138 4.95 3.5 3.5 0 0 1-4.948-.142 3.5 3.5 0 0 1 .133-4.946M248.09 198.96a3.498 3.498 0 0 1 4.956.142c1.326 1.391 1.263 3.617-.147 4.943a3.488 3.488 0 0 1-4.938-.142c-1.326-1.405-1.277-3.621.128-4.943M232.096 180.956a3.493 3.493 0 0 1 4.947.147c1.328 1.39 1.264 3.615-.132 4.94a3.503 3.503 0 0 1-4.815-5.087M214.092 163.956a3.523 3.523 0 0 1 4.965.138 3.518 3.518 0 0 1-.152 4.948 3.493 3.493 0 0 1-4.94-.133 3.5 3.5 0 0 1 .127-4.953M199.096 145.964a3.504 3.504 0 0 1 4.954.128 3.52 3.52 0 0 1-.142 4.953 3.496 3.496 0 0 1-4.955-.153 3.48 3.48 0 0 1 .143-4.928M181.1 127.958a3.487 3.487 0 0 1 4.944.142 3.488 3.488 0 0 1-.143 4.94 3.495 3.495 0 1 1-4.8-5.082M282.214 270.91c-1.687-1.394-1.606-3.624.181-4.954 1.562-1.167 3.905-1.25 5.605-.335-.675 2.093-1.368 4.205-2.043 6.357-1.344.118-2.743-.236-3.743-1.069M266.094 247.955a3.504 3.504 0 0 1 4.952.143 3.505 3.505 0 0 1-.138 4.946 3.508 3.508 0 0 1-4.952-.138 3.507 3.507 0 0 1 .138-4.95M250.09 230.956a3.504 3.504 0 0 1 4.958.148 3.496 3.496 0 0 1-.148 4.943 3.499 3.499 0 0 1-4.942-.142 3.506 3.506 0 0 1 .132-4.949M234.094 212.956a3.508 3.508 0 0 1 4.952.138 3.506 3.506 0 0 1-.143 4.95c-1.405 1.323-3.62 1.27-4.942-.142a3.495 3.495 0 0 1 .133-4.946M216.09 194.954a3.5 3.5 0 0 1 4.95.147 3.493 3.493 0 0 1-.137 4.946 3.507 3.507 0 0 1-4.945-.138 3.513 3.513 0 0 1 .133-4.955M200.088 177.958a3.514 3.514 0 0 1 4.962.138 3.497 3.497 0 0 1-.148 4.94 3.483 3.483 0 0 1-4.946-.137 3.5 3.5 0 0 1 .132-4.94M183.093 159.964a3.49 3.49 0 0 1 4.947.132 3.495 3.495 0 0 1-.138 4.95 3.507 3.507 0 0 1-4.947-.137c-1.326-1.416-1.262-3.628.138-4.945M167.099 141.955a3.495 3.495 0 0 1 4.943.142 3.506 3.506 0 0 1-.132 4.949 3.503 3.503 0 0 1-4.953-.148 3.491 3.491 0 0 1 .142-4.943M150 129.523c1.668-.285 3.337-.575 5-.845-.153.24-.321.475-.532.68a3.28 3.28 0 0 1-4.468.165M268.091 279.955a3.505 3.505 0 0 1 4.953.143c1.323 1.405 1.269 3.617-.138 4.94a3.499 3.499 0 0 1-4.947-.128 3.51 3.51 0 0 1 .132-4.955M252.098 262.957c1.396-1.328 3.619-1.264 4.947.128a3.514 3.514 0 0 1-.143 4.96 3.494 3.494 0 0 1-4.947-.147 3.49 3.49 0 0 1 .143-4.941M234.1 244.951a3.507 3.507 0 0 1 4.946.143 3.499 3.499 0 0 1-.138 4.94 3.49 3.49 0 0 1-4.95-.132 3.498 3.498 0 0 1 .142-4.95M218.094 226.949c1.406-1.312 3.628-1.263 4.956.142a3.523 3.523 0 0 1-.143 4.956 3.51 3.51 0 0 1-4.95-.142c-1.333-1.405-1.26-3.625.137-4.956M202.098 209.951a3.51 3.51 0 0 1 4.949.143c1.317 1.406 1.268 3.632-.138 4.945a3.491 3.491 0 0 1-4.948-.138 3.494 3.494 0 0 1 .137-4.95M184.103 191.954a3.49 3.49 0 0 1 4.938.143c1.336 1.4 1.263 3.614-.138 4.945a3.492 3.492 0 0 1-4.943-.138 3.49 3.49 0 0 1 .143-4.95M168.097 173.955a3.497 3.497 0 0 1 4.945.143 3.491 3.491 0 0 1-.142 4.946 3.5 3.5 0 0 1-4.946-.138 3.506 3.506 0 0 1 .143-4.95M151.094 155.957c1.4-1.327 3.626-1.268 4.943.142a3.493 3.493 0 0 1-.133 4.949 3.507 3.507 0 0 1-4.953-.148 3.505 3.505 0 0 1 .143-4.943M135.095 138.958a3.516 3.516 0 0 1 4.954.128 3.523 3.523 0 0 1-.143 4.96 3.5 3.5 0 1 1-4.811-5.087M269.047 318.91c-1.458-1.392-1.382-3.62.157-4.949 1.554-1.328 3.998-1.279 5.45.143.14.118.238.26.346.403-.65 1.81-1.306 3.597-1.999 5.328-1.354.389-2.909.094-3.954-.925M253.087 295.955a3.505 3.505 0 0 1 4.953.143 3.492 3.492 0 0 1-.138 4.947 3.493 3.493 0 0 1-4.943-.143 3.505 3.505 0 0 1 .128-4.947M236.101 277.952c1.396-1.328 3.607-1.254 4.944.143a3.512 3.512 0 0 1-.142 4.957 3.507 3.507 0 0 1-4.944-.147 3.497 3.497 0 0 1 .142-4.953M220.096 260.96a3.492 3.492 0 0 1 4.948.138 3.51 3.51 0 0 1-.138 4.954c-1.407 1.317-3.63 1.258-4.948-.152a3.487 3.487 0 0 1 .138-4.94M202.095 242.959a3.488 3.488 0 0 1 4.945.142 3.49 3.49 0 0 1-.133 4.94 3.506 3.506 0 0 1-4.95-.132 3.502 3.502 0 0 1 .138-4.95M186.093 224.955a3.511 3.511 0 0 1 4.957.142c1.316 1.406 1.262 3.628-.148 4.945a3.508 3.508 0 0 1-4.947-.128 3.519 3.519 0 0 1 .138-4.96M168.106 205.955a3.495 3.495 0 0 1 4.938.137 3.506 3.506 0 0 1-.138 4.95c-1.407 1.327-3.625 1.273-4.943-.147a3.472 3.472 0 0 1 .143-4.94M153.095 187.955a3.499 3.499 0 0 1 4.948.143 3.5 3.5 0 1 1-5.09 4.804c-1.327-1.396-1.258-3.62.142-4.947M137.09 170.96a3.497 3.497 0 0 1 4.955.142 3.496 3.496 0 0 1-.143 4.945 3.494 3.494 0 0 1-4.944-.148 3.494 3.494 0 0 1 .133-4.94M119.099 152.955a3.487 3.487 0 0 1 4.947.152c1.326 1.39 1.262 3.601-.143 4.932a3.49 3.49 0 0 1-4.947-.137c-1.33-1.4-1.262-3.616.143-4.947M104 141.103c1.667-.64 3.338-1.245 5-1.815a3.448 3.448 0 0 1-.843 1.46c-1.16 1.155-2.888 1.27-4.157.355M255.09 327.963a3.507 3.507 0 0 1 4.956.128c1.318 1.404 1.269 3.629-.138 4.955a3.512 3.512 0 0 1-4.956-.143 3.503 3.503 0 0 1 .138-4.94M237.099 309.966a3.492 3.492 0 0 1 4.949.128c1.318 1.418 1.264 3.627-.143 4.952a3.505 3.505 0 0 1-4.95-.142 3.485 3.485 0 0 1 .144-4.938M222.094 292.952c1.41-1.328 3.609-1.259 4.954.157a3.501 3.501 0 0 1-.147 4.947 3.522 3.522 0 0 1-4.945-.143 3.518 3.518 0 0 1 .138-4.961M204.094 274.95a3.505 3.505 0 0 1 4.808 5.101c-1.405 1.323-3.62 1.25-4.946-.141a3.515 3.515 0 0 1 .138-4.96M188.092 256.953a3.492 3.492 0 0 1 4.95.157c1.331 1.39 1.267 3.61-.142 4.937a3.501 3.501 0 0 1-4.94-.138c-1.337-1.405-1.263-3.625.132-4.956M170.088 239.955a3.515 3.515 0 0 1 4.96.142 3.497 3.497 0 0 1-.147 4.944 3.493 3.493 0 0 1-4.946-.138 3.511 3.511 0 0 1 .133-4.948M154.099 221.952a3.498 3.498 0 0 1 4.946.148 3.5 3.5 0 0 1-.143 4.948 3.493 3.493 0 0 1-4.94-.148 3.49 3.49 0 0 1 .137-4.948M137.1 203.956a3.495 3.495 0 0 1 4.94.138 3.503 3.503 0 0 1-.133 4.95 3.502 3.502 0 0 1-4.95-.142 3.493 3.493 0 0 1 .142-4.946M121.094 186.963a3.498 3.498 0 0 1 4.952.132c1.321 1.414 1.267 3.629-.143 4.945a3.486 3.486 0 0 1-4.942-.138c-1.331-1.404-1.272-3.624.133-4.94M105.093 168.964c1.405-1.341 3.62-1.268 4.95.127a3.502 3.502 0 0 1-.142 4.952 3.475 3.475 0 0 1-4.94-.152 3.472 3.472 0 0 1 .132-4.927M87.103 150.954a3.49 3.49 0 0 1 4.942.147 3.501 3.501 0 0 1-.142 4.948c-1.4 1.327-3.611 1.253-4.943-.147-1.336-1.4-1.267-3.607.143-4.948M239.103 341.954a3.504 3.504 0 0 1 4.95.143c1.312 1.415 1.258 3.63-.143 4.956-1.416 1.312-3.628 1.258-4.96-.142-1.327-1.405-1.253-3.63.153-4.957M223.1 323.967a3.481 3.481 0 0 1 4.942.127 3.5 3.5 0 0 1-.142 4.954 3.482 3.482 0 0 1-4.942-.157c-1.336-1.39-1.262-3.599.143-4.924M206.1 306.947a3.513 3.513 0 0 1 4.942.142c1.333 1.408 1.264 3.636-.138 4.95-1.401 1.328-3.629 1.274-4.947-.128a3.514 3.514 0 0 1 .143-4.964M190.095 288.957a3.498 3.498 0 0 1 4.95.142 3.504 3.504 0 0 1-.138 4.948 3.507 3.507 0 0 1-4.95-.142c-1.327-1.391-1.268-3.622.138-4.948M172.094 270.955a3.51 3.51 0 0 1 4.955.142 3.509 3.509 0 0 1-.143 4.948 3.501 3.501 0 0 1-4.944-.138 3.5 3.5 0 0 1 .132-4.952M156.096 253.957a3.498 3.498 0 0 1 4.95.142 3.498 3.498 0 0 1-.142 4.944 3.498 3.498 0 0 1-4.95-.142 3.498 3.498 0 0 1 .142-4.944M138.1 235.953c1.396-1.327 3.612-1.258 4.944.142a3.491 3.491 0 0 1-.148 4.947 3.483 3.483 0 0 1-4.943-.147 3.494 3.494 0 0 1 .147-4.942M123.102 217.965c1.395-1.34 3.616-1.272 4.942.128a3.5 3.5 0 0 1-.147 4.955 3.5 3.5 0 0 1-4.943-.143 3.487 3.487 0 0 1 .148-4.94M105.096 200.959a3.486 3.486 0 0 1 4.944.142 3.486 3.486 0 0 1-.132 4.937 3.502 3.502 0 0 1-4.955-.133 3.503 3.503 0 0 1 .143-4.946M89.098 182.953a3.496 3.496 0 0 1 4.941.143 3.484 3.484 0 0 1-.142 4.946 3.491 3.491 0 0 1-4.942-.137 3.503 3.503 0 0 1 .143-4.952M71.1 164.952a3.502 3.502 0 0 1 4.949.148 3.514 3.514 0 0 1-.138 4.948 3.5 3.5 0 0 1-4.948-.148 3.488 3.488 0 0 1 .137-4.948M223.091 355.95a3.523 3.523 0 0 1 4.959.143c1.317 1.405 1.263 3.63-.148 4.942a3.493 3.493 0 0 1-4.949-.128 3.52 3.52 0 0 1 .138-4.956M207.104 338.955a3.49 3.49 0 0 1 4.94.142c1.327 1.406 1.263 3.632-.134 4.949a3.514 3.514 0 0 1-4.949-.133 3.497 3.497 0 0 1 .143-4.958M191.097 320.954a3.504 3.504 0 0 1 4.949.142 3.514 3.514 0 0 1-.138 4.954 3.495 3.495 0 0 1-4.948-.158 3.483 3.483 0 0 1 .137-4.938M174.099 302.958a3.492 3.492 0 0 1 4.947.143c1.316 1.405 1.272 3.615-.143 4.947a3.5 3.5 0 0 1-4.947-.148 3.49 3.49 0 0 1 .143-4.942M158.099 285.952a3.508 3.508 0 0 1 4.95.143 3.51 3.51 0 0 1-.138 4.945 3.49 3.49 0 0 1-4.95-.142 3.488 3.488 0 0 1 .138-4.946M140.099 267.956a3.496 3.496 0 0 1 4.941.138c1.331 1.406 1.272 3.633-.142 4.95a3.492 3.492 0 0 1-4.942-.142 3.495 3.495 0 0 1 .143-4.946M124.103 249.962a3.47 3.47 0 0 1 4.936.142 3.49 3.49 0 0 1-.132 4.942 3.505 3.505 0 0 1-4.951-.143 3.485 3.485 0 0 1 .147-4.941M107.092 232.959a3.515 3.515 0 0 1 4.953.127 3.503 3.503 0 0 1-.142 4.95 3.485 3.485 0 0 1-4.943-.132 3.497 3.497 0 0 1 .132-4.945M91.102 214.954a3.498 3.498 0 0 1 4.944.143 3.506 3.506 0 0 1-.142 4.95c-1.405 1.316-3.624 1.267-4.945-.137a3.498 3.498 0 0 1 .143-4.956M73.1 196.954a3.503 3.503 0 0 1 4.948.142 3.5 3.5 0 0 1-.148 4.948 3.49 3.49 0 0 1-4.937-.138c-1.337-1.397-1.273-3.62.137-4.952M57.094 178.953a3.503 3.503 0 0 1 4.804 5.098 3.507 3.507 0 0 1-4.946-.147 3.51 3.51 0 0 1 .142-4.95M209.095 369.955a3.502 3.502 0 0 1 4.948.142 3.49 3.49 0 0 1-.142 4.943 3.5 3.5 0 0 1-4.944-.128 3.512 3.512 0 0 1 .138-4.957M191.097 352.955a3.494 3.494 0 0 1 4.943.143c1.331 1.405 1.272 3.632-.143 4.95a3.494 3.494 0 0 1-4.942-.148 3.497 3.497 0 0 1 .142-4.945M176.092 334.955a3.503 3.503 0 0 1 4.814 5.09 3.503 3.503 0 0 1-4.814-5.09M158.09 316.956a3.524 3.524 0 0 1 4.96.133 3.522 3.522 0 0 1-.147 4.958 3.492 3.492 0 0 1-4.94-.147 3.494 3.494 0 0 1 .127-4.944M142.104 299.957c1.395-1.328 3.61-1.264 4.941.128a3.52 3.52 0 0 1-.137 4.96 3.51 3.51 0 0 1-4.957-.143 3.495 3.495 0 0 1 .153-4.945M126.1 281.949c1.396-1.323 3.607-1.254 4.944.152a3.483 3.483 0 0 1-.143 4.937 3.488 3.488 0 0 1-4.943-.133 3.502 3.502 0 0 1 .143-4.956M108.099 263.954a3.491 3.491 0 0 1 4.938.142c1.331 1.412 1.277 3.62-.128 4.942-1.415 1.333-3.636 1.274-4.953-.133a3.501 3.501 0 0 1 .143-4.951M92.1 246.95a3.5 3.5 0 0 1 4.943.147c1.321 1.4 1.272 3.625-.133 4.946a3.506 3.506 0 0 1-4.952-.137c-1.336-1.405-1.262-3.625.143-4.956M75.097 228.958c1.4-1.333 3.616-1.264 4.947.137a3.494 3.494 0 0 1-.143 4.946c-1.41 1.327-3.625 1.273-4.936-.138a3.485 3.485 0 0 1 .132-4.945M59.1 210.955a3.5 3.5 0 0 1 4.804 5.086c-1.411 1.327-3.629 1.273-4.947-.138-1.337-1.405-1.258-3.621.143-4.948M41.096 193.955c1.397-1.327 3.615-1.263 4.948.143a3.495 3.495 0 0 1-.138 4.942 3.504 3.504 0 0 1-4.952-.133 3.507 3.507 0 0 1 .142-4.952M193.094 384.955a3.5 3.5 0 0 1 4.947.142 3.492 3.492 0 0 1-.137 4.945c-1.41 1.327-3.621 1.272-4.943-.143a3.492 3.492 0 0 1 .133-4.944M177.101 366.958a3.483 3.483 0 0 1 4.94.142 3.493 3.493 0 0 1-.138 4.946 3.51 3.51 0 0 1-4.944-.132 3.501 3.501 0 0 1 .142-4.956M160.095 348.955a3.492 3.492 0 0 1 4.943.143 3.486 3.486 0 0 1-.138 4.947 3.499 3.499 0 1 1-4.805-5.09M144.094 331.955a3.501 3.501 0 0 1 4.949.143 3.492 3.492 0 0 1-.147 4.95c-1.395 1.326-3.614 1.258-4.94-.148a3.499 3.499 0 0 1 .138-4.945M126.1 313.947a3.5 3.5 0 0 1 4.946.157 3.494 3.494 0 0 1-.143 4.942 3.506 3.506 0 0 1-4.951-.143 3.512 3.512 0 0 1 .147-4.956M110.096 295.954a3.508 3.508 0 0 1 4.952.143 3.51 3.51 0 0 1-.147 4.954c-1.406 1.326-3.616 1.247-4.938-.142a3.5 3.5 0 0 1 .133-4.955M94.094 277.957a3.506 3.506 0 0 1 4.952.138 3.508 3.508 0 0 1-.147 4.957 3.5 3.5 0 0 1-4.804-5.095M77.098 260.962a3.498 3.498 0 0 1 4.947.128 3.513 3.513 0 0 1-.138 4.954c-1.41 1.327-3.63 1.268-4.946-.152a3.47 3.47 0 0 1 .137-4.93M61.098 242.948c1.394-1.321 3.613-1.253 4.944.152a3.496 3.496 0 0 1-.138 4.946 3.493 3.493 0 0 1-4.944-.147c-1.335-1.4-1.267-3.61.138-4.951M43.093 224.954a3.512 3.512 0 0 1 4.956.142 3.508 3.508 0 0 1-.143 4.948 3.496 3.496 0 0 1-4.946-.142c-1.337-1.392-1.263-3.615.133-4.948M27.099 207.957a3.488 3.488 0 0 1 4.942.142 3.497 3.497 0 0 1-.133 4.945 3.509 3.509 0 0 1-4.952-.137 3.5 3.5 0 0 1 .143-4.95M179.101 398.955a3.485 3.485 0 0 1 4.936.143 3.491 3.491 0 0 1-.132 4.947 3.503 3.503 0 0 1-4.951-.143 3.496 3.496 0 0 1 .147-4.947M161.097 380.955a3.504 3.504 0 0 1 4.95.143 3.508 3.508 0 0 1-.142 4.95 3.504 3.504 0 0 1-4.95-.148c-1.327-1.391-1.263-3.613.142-4.945M146.095 362.95c1.405-1.332 3.625-1.248 4.946.157 1.332 1.39 1.268 3.615-.137 4.94a3.494 3.494 0 0 1-4.941-.146 3.497 3.497 0 0 1 .132-4.952M128.097 345.957a3.502 3.502 0 0 1 4.944.133 3.514 3.514 0 0 1-.138 4.962c-1.405 1.314-3.626 1.26-4.948-.147a3.5 3.5 0 0 1 .142-4.948M112.096 327.949a3.5 3.5 0 0 1 4.95.157c1.327 1.39 1.263 3.6-.148 4.942-1.4 1.326-3.608 1.257-4.945-.147-1.327-1.4-1.258-3.626.143-4.952M94.093 309.952a3.487 3.487 0 0 1 4.945.157c1.333 1.39 1.274 3.599-.132 4.939a3.505 3.505 0 0 1-4.813-5.096M78.097 292.961a3.507 3.507 0 0 1 4.952.128c1.317 1.407 1.263 3.626-.142 4.954a3.511 3.511 0 0 1-4.952-.133c-1.327-1.422-1.263-3.63.142-4.949M61.094 274.96a3.5 3.5 0 0 1 4.952.137 3.51 3.51 0 0 1-.143 4.954 3.502 3.502 0 0 1-4.942-.147 3.492 3.492 0 0 1 .133-4.945M45.096 256.955c1.397-1.327 3.615-1.263 4.948.143a3.496 3.496 0 0 1-.142 4.946 3.498 3.498 0 0 1-4.944-.138 3.502 3.502 0 0 1 .138-4.95M29.095 239.958a3.51 3.51 0 0 1 4.948.128 3.52 3.52 0 0 1-.133 4.959 3.517 3.517 0 0 1-4.958-.138 3.508 3.508 0 0 1 .143-4.949M16.05 222.09a3.51 3.51 0 0 1-.144 4.95 3.514 3.514 0 0 1-4.961-.133 3.502 3.502 0 0 1-.945-2.401c.389-.886.792-1.756 1.196-2.642a3.514 3.514 0 0 1 4.853.227M163.176 413.476c1.52-1.35 3.91-1.285 5.356.145.181.185.325.385.468.585-2.328.83-4.655 1.57-6.972 2.29a3.419 3.419 0 0 1 1.148-3.02M147.097 394.958a3.498 3.498 0 0 1 4.952.143 3.51 3.51 0 0 1-.142 4.947 3.506 3.506 0 0 1-4.952-.148 3.494 3.494 0 0 1 .142-4.942M130.094 377.962c1.405-1.341 3.622-1.263 4.949.127a3.51 3.51 0 0 1-.138 4.957c-1.406 1.326-3.627 1.262-4.94-.143a3.483 3.483 0 0 1 .129-4.941M114.099 359.95a3.515 3.515 0 0 1 4.95.143c1.323 1.404 1.254 3.629-.137 4.94a3.491 3.491 0 0 1-4.95-.128 3.5 3.5 0 0 1 .137-4.955M96.101 341.946c1.396-1.317 3.607-1.249 4.944.142a3.519 3.519 0 0 1-.138 4.96 3.5 3.5 0 0 1-4.948-.148c-1.337-1.4-1.263-3.617.142-4.954M80.101 323.96a3.492 3.492 0 0 1 4.944.134 3.503 3.503 0 0 1-.142 4.95 3.492 3.492 0 0 1-4.944-.143 3.482 3.482 0 0 1 .142-4.94M62.104 306.956a3.49 3.49 0 0 1 4.942.142c1.326 1.39 1.262 3.613-.143 4.939a3.473 3.473 0 0 1-4.941-.142 3.473 3.473 0 0 1 .142-4.94M46.1 288.959a3.497 3.497 0 0 1 4.949.138 3.51 3.51 0 0 1-.143 4.948 3.508 3.508 0 0 1-4.954-.142 3.495 3.495 0 0 1 .148-4.944M29.1 270.959a3.492 3.492 0 0 1 4.948.142 3.492 3.492 0 0 1-.152 4.944 3.483 3.483 0 0 1-4.933-.142 3.483 3.483 0 0 1 .137-4.944M13.089 253.957a3.524 3.524 0 0 1 4.957.128c1.323 1.41 1.264 3.633-.142 4.956a3.506 3.506 0 0 1-4.958-.138 3.519 3.519 0 0 1 .143-4.946M131.098 410.955c1.401-1.328 3.623-1.26 4.95.132 1.318 1.417 1.264 3.634-.142 4.947a3.489 3.489 0 0 1-4.95-.133 3.498 3.498 0 0 1 .142-4.946M115.09 392.965a3.503 3.503 0 0 1 4.956.128 3.51 3.51 0 0 1-.143 4.955 3.482 3.482 0 0 1-4.941-.158c-1.336-1.39-1.268-3.6.127-4.925M98.101 375.955a3.5 3.5 0 0 1 4.948.142 3.504 3.504 0 0 1-.142 4.943 3.493 3.493 0 0 1-4.953-.142c-1.326-1.391-1.263-3.617.147-4.943M82.097 357.95c1.405-1.316 3.621-1.262 4.943.143a3.5 3.5 0 0 1-.143 4.958c-1.4 1.326-3.61 1.248-4.942-.143a3.512 3.512 0 0 1 .142-4.957M64.097 338.955a3.504 3.504 0 0 1 4.952.143c1.317 1.406 1.263 3.634-.142 4.947a3.504 3.504 0 0 1-4.952-.143c-1.327-1.392-1.263-3.619.142-4.947M48.101 320.957a3.49 3.49 0 0 1 4.945.143 3.503 3.503 0 0 1-.138 4.945c-1.412 1.327-3.63 1.263-4.944-.143a3.481 3.481 0 0 1 .137-4.945M31.102 302.955c1.395-1.327 3.611-1.263 4.943.143a3.504 3.504 0 0 1-.138 4.947 3.493 3.493 0 0 1-4.943-.143 3.481 3.481 0 0 1 .138-4.947M15.098 285.957a3.497 3.497 0 0 1 4.944.137 3.508 3.508 0 0 1-.133 4.952 3.51 3.51 0 0 1-4.954-.143c-1.332-1.4-1.258-3.62.143-4.946M3.006 273.067a3.523 3.523 0 0 1-2.1.933 125.01 125.01 0 0 1 .07-7 3.48 3.48 0 0 1 2.165 1.077 3.512 3.512 0 0 1-.135 4.99M120.063 423.699c-1.056 0-2.1-.01-3.126-.065a3.538 3.538 0 0 1 3.126.065M100.097 407.963c1.4-1.343 3.614-1.264 4.949.128a3.52 3.52 0 0 1-.142 4.961 3.507 3.507 0 0 1-4.94-.143 3.487 3.487 0 0 1 .133-4.946M82.089 389.954a3.504 3.504 0 1 1 4.812 5.097c-1.401 1.326-3.613 1.247-4.945-.142a3.517 3.517 0 0 1 .133-4.955M66.096 371.955a3.496 3.496 0 0 1 4.944.142 3.495 3.495 0 0 1-.132 4.945 3.505 3.505 0 0 1-4.96-.143 3.505 3.505 0 0 1 .148-4.944M50.092 354.955a3.5 3.5 0 0 1 4.949.143 3.494 3.494 0 0 1-.138 4.947 3.488 3.488 0 0 1-4.94-.143 3.494 3.494 0 0 1 .129-4.947M32.097 336.942a3.518 3.518 0 0 1 4.95.158 3.51 3.51 0 0 1-.137 4.945 3.497 3.497 0 0 1-4.946-.143 3.505 3.505 0 0 1 .133-4.96M16.094 318.955a3.502 3.502 0 0 1 4.813 5.09c-1.416 1.327-3.633 1.263-4.945-.143a3.493 3.493 0 0 1 .132-4.947M3.714 305.594c-.15.16-.305.29-.47.406-.395-2.364-.75-4.69-1.07-7a3.393 3.393 0 0 1 1.68 1.092c1.35 1.569 1.285 4.037-.14 5.502M73.02 402.268c1.36 1.625 1.295 4.181-.14 5.715-.006 0 0 0-.006.017-2.025-1.34-3.97-2.738-5.874-4.135.176-.648.484-1.267.942-1.761 1.446-1.534 3.713-1.46 5.079.164M50.094 385.955a3.504 3.504 0 0 1 4.952.143 3.5 3.5 0 0 1-.143 4.947 3.492 3.492 0 0 1-4.942-.143c-1.336-1.392-1.267-3.619.133-4.947M38.91 374.045a3.506 3.506 0 0 1-4.953-.143 3.495 3.495 0 0 1 .142-4.947 3.488 3.488 0 0 1 4.939.143c1.337 1.392 1.268 3.619-.128 4.947M23.1 351.15c1.253 1.453 1.188 3.78-.135 5.167a3.645 3.645 0 0 1-.93.683A147.513 147.513 0 0 1 19 350.523c1.305-.868 3.012-.653 4.1.626"/></g></svg>