 <svg id="ediqYUnFt7R1" xmlns="http://www.w3.org/2000/svg" xmlns:xlink="http://www.w3.org/1999/xlink"
    viewBox="3 258 828 258"  shape-rendering="geometricPrecision" text-rendering="geometricPrecision">
  
    <path id="wave1"
  width="120%"
        d="M0,364l21.5,3c21.5,3,64.5,9,107.3,23c42.9,14,85.5,36,128.4,46.5c42.8,10.5,85.8,9.5,128.6-3c42.9-12.5,85.5-36.5,128.4-45.7c42.8-9.1,85.8-3.5,128.6-2.3c42.9,1.2,85.5-2.2,128.4-1.3c42.8.8,85.8,5.8,107.3,8.3L900,395v206h-21.5c-21.5,0-64.5,0-107.3,0-42.9,0-85.5,0-128.4,0-42.8,0-85.8,0-128.6,0-42.9,0-85.5,0-128.4,0-42.8,0-85.8,0-128.6,0-42.9,0-85.5,0-128.4,0-42.8,0-85.8,0-107.3,0L0,601Z"
        transform="matrix(1.145728 0 0 1-65.5776 0)" fill="#fa7268" />
    <path
    id="wave2"
        d="M0,415l21.5-2.2c21.5-2.1,64.5-6.5,107.3-7.3c42.9-.8,85.5,1.8,128.4,10.7C300,425,343,440,385.8,447.8c42.9,7.9,85.5,8.5,128.4,6c42.8-2.5,85.8-8.1,128.6-10.3c42.9-2.2,85.5-.8,128.4,3.3C814,451,857,458,878.5,461.5L900,465v136h-21.5c-21.5,0-64.5,0-107.3,0-42.9,0-85.5,0-128.4,0-42.8,0-85.8,0-128.6,0-42.9,0-85.5,0-128.4,0-42.8,0-85.8,0-128.6,0-42.9,0-85.5,0-128.4,0-42.8,0-85.8,0-107.3,0L0,601Z"
        transform="matrix(1.212603 0 0 1-95.67135 0)" fill="#ef5f67" />
    <path
    id="wave3"
        d="M0,448l21.5,3.2c21.5,3.1,64.5,9.5,107.3,7.6c42.9-1.8,85.5-11.8,128.4-7.6C300,455.3,343,473.7,385.8,482c42.9,8.3,85.5,6.7,128.4,8c42.8,1.3,85.8,5.7,128.6-2.2c42.9-7.8,85.5-27.8,128.4-35.1c42.8-7.4,85.8-2,107.3.6L900,456v145h-21.5c-21.5,0-64.5,0-107.3,0-42.9,0-85.5,0-128.4,0-42.8,0-85.8,0-128.6,0-42.9,0-85.5,0-128.4,0-42.8,0-85.8,0-128.6,0-42.9,0-85.5,0-128.4,0-42.8,0-85.8,0-107.3,0L0,601Z"
        transform="matrix(1.247804 0 0 1-111.5118 0)" fill="#e34c67" />
    <path
    id="wave4"
        d="M0,484l21.5,7.8C43,499.7,86,515.3,128.8,518.7c42.9,3.3,85.5-5.7,128.4-7.2C300,510,343,516,385.8,516.3c42.9.4,85.5-5,128.4-2.5c42.8,2.5,85.8,12.9,128.6,17.7c42.9,4.8,85.5,4.2,128.4.3C814,528,857,521,878.5,517.5L900,514v87h-21.5c-21.5,0-64.5,0-107.3,0-42.9,0-85.5,0-128.4,0-42.8,0-85.8,0-128.6,0-42.9,0-85.5,0-128.4,0-42.8,0-85.8,0-128.6,0-42.9,0-85.5,0-128.4,0-42.8,0-85.8,0-107.3,0L0,601Z"
        transform="matrix(1.297083 0 0 1-133.68735 0)" fill="#d53867" />
    <path
    id="wave5"
        d="M0,570l21.5-3.8C43,562.3,86,554.7,128.8,553c42.9-1.7,85.5,2.7,128.4,1.3C300,553,343,546,385.8,543c42.9-3,85.5-2,128.4.5C557,546,600,550,642.8,552.2c42.9,2.1,85.5,2.5,128.4,1.1C814,552,857,549,878.5,547.5L900,546v55h-21.5c-21.5,0-64.5,0-107.3,0-42.9,0-85.5,0-128.4,0-42.8,0-85.8,0-128.6,0-42.9,0-85.5,0-128.4,0-42.8,0-85.8,0-128.6,0-42.9,0-85.5,0-128.4,0-42.8,0-85.8,0-107.3,0L0,601Z"
        transform="matrix(1.363958 0 0 1-163.7811 0)" fill="#c62368" />
</svg>